<mxfile host="Electron" modified="2023-11-27T16:54:09.439Z" agent="Mozilla/5.0 (Windows NT 10.0; Win64; x64) AppleWebKit/537.36 (KHTML, like Gecko) draw.io/22.0.2 Chrome/114.0.5735.289 Electron/25.8.4 Safari/537.36" etag="DfQfftQ5zviUE6LD0aBO" version="22.0.2" type="device">
  <diagram id="R2lEEEUBdFMjLlhIrx00" name="Page-1">
    <mxGraphModel dx="1560" dy="1088" grid="1" gridSize="10" guides="1" tooltips="1" connect="1" arrows="1" fold="1" page="1" pageScale="1" pageWidth="850" pageHeight="1100" math="0" shadow="0" extFonts="Permanent Marker^https://fonts.googleapis.com/css?family=Permanent+Marker">
      <root>
        <mxCell id="0" />
        <mxCell id="1" parent="0" />
        <mxCell id="DbHzVnK55NRsxIuh0r4k-1" value="" style="group;fontSize=20;" vertex="1" connectable="0" parent="1">
          <mxGeometry x="40" y="20" width="750" height="710" as="geometry" />
        </mxCell>
        <mxCell id="ru3zBncKDVxUVo9gxgYs-1" value="Database" style="rounded=0;whiteSpace=wrap;html=1;fontSize=20;" parent="DbHzVnK55NRsxIuh0r4k-1" vertex="1">
          <mxGeometry width="195.65217391304347" height="103.90243902439023" as="geometry" />
        </mxCell>
        <mxCell id="ru3zBncKDVxUVo9gxgYs-2" value="Server" style="rounded=0;whiteSpace=wrap;html=1;fontSize=20;" parent="DbHzVnK55NRsxIuh0r4k-1" vertex="1">
          <mxGeometry x="277.17391304347825" width="195.65217391304347" height="103.90243902439023" as="geometry" />
        </mxCell>
        <mxCell id="ru3zBncKDVxUVo9gxgYs-7" style="edgeStyle=orthogonalEdgeStyle;rounded=0;orthogonalLoop=1;jettySize=auto;html=1;endArrow=none;endFill=0;fontSize=20;" parent="DbHzVnK55NRsxIuh0r4k-1" source="ru3zBncKDVxUVo9gxgYs-1" target="ru3zBncKDVxUVo9gxgYs-2" edge="1">
          <mxGeometry relative="1" as="geometry" />
        </mxCell>
        <mxCell id="ru3zBncKDVxUVo9gxgYs-3" value="Modem" style="rounded=0;whiteSpace=wrap;html=1;fontSize=20;" parent="DbHzVnK55NRsxIuh0r4k-1" vertex="1">
          <mxGeometry x="554.3478260869565" width="195.65217391304347" height="103.90243902439023" as="geometry" />
        </mxCell>
        <mxCell id="ru3zBncKDVxUVo9gxgYs-8" style="edgeStyle=orthogonalEdgeStyle;rounded=0;orthogonalLoop=1;jettySize=auto;html=1;entryX=0;entryY=0.5;entryDx=0;entryDy=0;endArrow=none;endFill=0;fontSize=20;" parent="DbHzVnK55NRsxIuh0r4k-1" source="ru3zBncKDVxUVo9gxgYs-2" target="ru3zBncKDVxUVo9gxgYs-3" edge="1">
          <mxGeometry relative="1" as="geometry" />
        </mxCell>
        <mxCell id="ru3zBncKDVxUVo9gxgYs-4" value="Laptop/PC" style="rounded=0;whiteSpace=wrap;html=1;fontSize=20;" parent="DbHzVnK55NRsxIuh0r4k-1" vertex="1">
          <mxGeometry x="554.3478260869565" y="225.12195121951217" width="195.65217391304347" height="103.90243902439023" as="geometry" />
        </mxCell>
        <mxCell id="ru3zBncKDVxUVo9gxgYs-9" style="rounded=0;orthogonalLoop=1;jettySize=auto;html=1;entryX=0.5;entryY=0;entryDx=0;entryDy=0;endArrow=none;endFill=0;fontSize=20;" parent="DbHzVnK55NRsxIuh0r4k-1" source="ru3zBncKDVxUVo9gxgYs-3" target="ru3zBncKDVxUVo9gxgYs-4" edge="1">
          <mxGeometry relative="1" as="geometry" />
        </mxCell>
        <mxCell id="ru3zBncKDVxUVo9gxgYs-5" value="Desktop App&lt;br style=&quot;font-size: 20px;&quot;&gt;(Talent Science Academy)" style="rounded=0;whiteSpace=wrap;html=1;fontSize=20;" parent="DbHzVnK55NRsxIuh0r4k-1" vertex="1">
          <mxGeometry x="554.3478260869565" y="415.60975609756093" width="195.65217391304347" height="103.90243902439023" as="geometry" />
        </mxCell>
        <mxCell id="ru3zBncKDVxUVo9gxgYs-10" style="rounded=0;orthogonalLoop=1;jettySize=auto;html=1;entryX=0.5;entryY=0;entryDx=0;entryDy=0;endArrow=none;endFill=0;fontSize=20;" parent="DbHzVnK55NRsxIuh0r4k-1" source="ru3zBncKDVxUVo9gxgYs-4" target="ru3zBncKDVxUVo9gxgYs-5" edge="1">
          <mxGeometry relative="1" as="geometry" />
        </mxCell>
        <mxCell id="ru3zBncKDVxUVo9gxgYs-6" value="User" style="rounded=0;whiteSpace=wrap;html=1;fontSize=20;" parent="DbHzVnK55NRsxIuh0r4k-1" vertex="1">
          <mxGeometry x="554.3478260869565" y="606.0975609756097" width="195.65217391304347" height="103.90243902439023" as="geometry" />
        </mxCell>
        <mxCell id="ru3zBncKDVxUVo9gxgYs-11" style="edgeStyle=orthogonalEdgeStyle;rounded=0;orthogonalLoop=1;jettySize=auto;html=1;endArrow=none;endFill=0;fontSize=20;" parent="DbHzVnK55NRsxIuh0r4k-1" source="ru3zBncKDVxUVo9gxgYs-5" target="ru3zBncKDVxUVo9gxgYs-6" edge="1">
          <mxGeometry relative="1" as="geometry">
            <Array as="points">
              <mxPoint x="652.1739130434783" y="554.1463414634145" />
              <mxPoint x="652.1739130434783" y="554.1463414634145" />
            </Array>
          </mxGeometry>
        </mxCell>
      </root>
    </mxGraphModel>
  </diagram>
</mxfile>
